<?xml version="1.0" encoding="utf-8"?>
<!-- Generator: Adobe Illustrator 27.5.0, SVG Export Plug-In . SVG Version: 6.00 Build 0)  -->
<svg version="1.1" id="Layer_1" xmlns="http://www.w3.org/2000/svg" xmlns:xlink="http://www.w3.org/1999/xlink" x="0px" y="0px"
	 viewBox="0 0 131 40" style="enable-background:new 0 0 131 40;" xml:space="preserve">
<style type="text/css">
	.st0{fill:#34C6F4;}
	.st1{fill:#33C6F4;}
	.st2{font-family:'ArialRoundedMTBold';}
	.st3{font-size:20px;}
</style>
<g>
	<path class="st0" d="M2.9,10.5c8.1-2.5,16.3-4.9,24.4-7.4c0.4,2,0.9,4,1.3,6C22.3,11,15.9,13,9.6,14.9c0,0,0,0,0,0h19.7
		c0,0.1,0,0.2,0,0.2c0,5.2,0,10.3,0,15.5c0,2.9-2,5.3-4.4,5.5c-0.2,0-0.5,0-0.7,0c-5.1,0-10.3,0-15.4,0c-1.3,0-2.4-0.5-3.3-1.6
		c-0.8-1-1.3-2.2-1.4-3.6c0-0.3,0-0.6,0-0.8c0-4.6,0-9.1,0-13.7C4,16,4,15.5,3.9,15c-0.3-1.4-0.6-2.9-0.9-4.3
		C2.9,10.6,2.9,10.6,2.9,10.5z M5.2,21.1v0.2c0,3.1,0,6.2,0,9.3c0,0.2,0,0.3,0,0.5c0.3,2.1,1.7,3.6,3.5,3.6c5.2,0,10.4,0,15.6,0
		c0.1,0,0.3,0,0.4,0c1.9-0.2,3.3-2,3.3-4.2c0-3,0-6.1,0-9.1v-0.3H5.2z M8.8,16.3c0,0.1,0.1,0.1,0.1,0.2c0.6,1,1.2,2,1.8,3
		c0.1,0.1,0.1,0.2,0.3,0.2c0.7,0,1.4,0,2.1,0c0.1,0,0.1,0,0.2,0c0,0,0-0.1,0-0.1c-0.6-1-1.2-2.1-1.8-3.1c0-0.1-0.1-0.1-0.2-0.1
		c-0.4,0-0.8,0-1.1,0C9.6,16.3,9.3,16.3,8.8,16.3L8.8,16.3z M18.9,19.7c0-0.1-0.1-0.1-0.1-0.2c-0.6-1-1.2-2-1.8-3
		c-0.1-0.1-0.1-0.1-0.2-0.1c-0.7,0-1.4,0-2.1,0c0,0-0.1,0-0.2,0c0,0.1,0.1,0.1,0.1,0.1c0.5,0.9,1.1,1.8,1.6,2.8
		c0.2,0.3,0.4,0.4,0.7,0.4C17.5,19.7,18.2,19.7,18.9,19.7L18.9,19.7z M20.1,16.3c0,0.1,0.1,0.1,0.1,0.2c0.6,1,1.2,2,1.8,3
		c0.1,0.1,0.1,0.2,0.3,0.2c0.7,0,1.4,0,2.1,0c0.1,0,0.1,0,0.2,0c0-0.1,0-0.1,0-0.1c-0.6-1-1.2-2.1-1.8-3.1c0-0.1-0.1-0.1-0.2-0.1
		c-0.4,0-0.8,0-1.2,0C20.8,16.3,20.5,16.3,20.1,16.3L20.1,16.3z M23.7,9.1C23.7,9.1,23.7,9.1,23.7,9.1c-0.9-0.9-1.7-1.8-2.5-2.6
		c0,0-0.1-0.1-0.2,0c-0.7,0.2-1.4,0.4-2.2,0.6c0,0-0.1,0-0.1,0.1c0.1,0,0.1,0.1,0.1,0.1c0.7,0.7,1.4,1.4,2.1,2.1
		c0.3,0.3,0.5,0.4,0.9,0.3C22.4,9.5,23.1,9.3,23.7,9.1z M12.8,12.4C12.8,12.4,12.8,12.4,12.8,12.4c-0.8-0.9-1.6-1.7-2.4-2.5
		c-0.1-0.1-0.2-0.1-0.3-0.1c-0.6,0.2-1.2,0.4-1.8,0.5c-0.1,0-0.3,0.1-0.4,0.1c0.2,0.2,0.4,0.4,0.5,0.5c0.6,0.7,1.3,1.3,1.9,2
		c0.1,0.1,0.2,0.1,0.2,0.1C11.3,12.9,12,12.7,12.8,12.4z M13.4,8.8C13.4,8.9,13.4,8.9,13.4,8.8c0.8,0.9,1.6,1.7,2.5,2.6
		c0.1,0.1,0.2,0.1,0.2,0c0.7-0.2,1.4-0.4,2-0.6c0.1,0,0.1,0,0.2-0.1c-0.8-0.8-1.6-1.6-2.4-2.4c-0.2-0.2-0.3-0.2-0.5-0.1
		c-0.1,0.1-0.3,0.1-0.4,0.1C14.5,8.5,13.9,8.7,13.4,8.8L13.4,8.8z M5.2,19.7h2.4c0,0,0,0,0-0.1c-0.6-1.1-1.2-2.1-1.9-3.2
		c0,0-0.1-0.1-0.1-0.1c-0.1,0-0.2,0-0.4,0L5.2,19.7L5.2,19.7z M5,14.8c0.8-0.2,1.5-0.5,2.3-0.7C7.3,14,7.3,14,7.2,13.9
		c-0.7-0.8-1.5-1.5-2.2-2.3c-0.2-0.3-0.3-0.3-0.7-0.1C4.6,12.6,4.8,13.7,5,14.8L5,14.8z M25.7,16.4c0.6,1,1.2,2,1.8,3.1
		c0.1,0.3,0.3,0.3,0.5,0.2v-3.3L25.7,16.4L25.7,16.4z M26.5,4.9c-0.7,0.2-1.5,0.4-2.2,0.7l0,0.1c0,0,0.1,0,0.1,0.1
		c0.7,0.8,1.5,1.5,2.2,2.3c0.2,0.2,0.4,0.3,0.6,0.1C26.9,7,26.7,5.9,26.5,4.9L26.5,4.9z"/>
	<path class="st0" d="M13.8,24.9c0,0,0.1,0,0.1,0.1c1.6,0.8,3.1,1.6,4.7,2.3c0.3,0.1,0.6,0.3,0.9,0.4c0.2,0.1,0.2,0.3,0,0.4
		c-1.6,0.8-3.2,1.6-4.8,2.4c-0.3,0.1-0.5,0.3-0.8,0.4c-0.2,0.1-0.4,0-0.4-0.2c0-1.9,0-3.7,0-5.6C13.6,25,13.7,24.9,13.8,24.9z"/>
</g>
<text transform="matrix(0.9125 0 0 1 31.7212 27.9253)" class="st1 st2 st3">MovieVerse</text>
</svg>
